<svg xmlns="http://www.w3.org/2000/svg" width="59" height="38" viewBox="0 0 59 38">
    <g fill="none" fill-rule="evenodd">
        <g fill-rule="nonzero">
            <g>
                <path fill="#FFF" d="M23.485 0c1.2 0 2.31.63 2.91 1.655l5.667 13.838V31.13L23.484 9.268 7.63 36.306c-.18.306-.508.494-.863.494H1.744c-.552 0-1-.448-1-1 0-.177.047-.352.137-.505l19.694-33.64C21.175.63 22.285 0 23.485 0z" transform="translate(-30.000000, -21.000000) translate(30.000000, 21.000000)"/>
                <path fill="#01C58E" d="M38.064 7.05c1.2 0 2.31.63 2.91 1.654l15.683 26.792c.279.477.119 1.09-.358 1.369-.153.09-.328.137-.505.137h-5.03c-.354 0-.683-.188-.862-.495l-11.839-20.19-6.003 14.804V15.507l3.094-6.803c.6-1.024 1.71-1.654 2.91-1.654z" transform="translate(-30.000000, -21.000000) translate(30.000000, 21.000000)"/>
            </g>
        </g>
    </g>
</svg>
